<?xml version="1.0" encoding="UTF-8" standalone="no"?>
<!-- Created with Inkscape (http://www.inkscape.org/) -->

<svg
   width="148mm"
   height="105mm"
   viewBox="0 0 148 105"
   version="1.1"
   id="svg5"
   inkscape:version="1.2.2 (b0a8486541, 2022-12-01)"
   sodipodi:docname="QuestForNature.svg"
   xml:space="preserve"
   inkscape:export-filename="QuestForNature.pdf"
   inkscape:export-xdpi="96"
   inkscape:export-ydpi="96"
   xmlns:inkscape="http://www.inkscape.org/namespaces/inkscape"
   xmlns:sodipodi="http://sodipodi.sourceforge.net/DTD/sodipodi-0.dtd"
   xmlns="http://www.w3.org/2000/svg"
   xmlns:svg="http://www.w3.org/2000/svg"><sodipodi:namedview
     id="namedview7"
     pagecolor="#ffffff"
     bordercolor="#000000"
     borderopacity="0.25"
     inkscape:showpageshadow="2"
     inkscape:pageopacity="0.0"
     inkscape:pagecheckerboard="0"
     inkscape:deskcolor="#d1d1d1"
     inkscape:document-units="mm"
     showgrid="false"
     inkscape:zoom="1.241849"
     inkscape:cx="299.55332"
     inkscape:cy="179.97357"
     inkscape:window-width="1598"
     inkscape:window-height="884"
     inkscape:window-x="0"
     inkscape:window-y="14"
     inkscape:window-maximized="0"
     inkscape:current-layer="layer3" /><defs
     id="defs2"><linearGradient
       id="linearGradient1661"
       inkscape:swatch="solid"><stop
         style="stop-color:#000000;stop-opacity:1;"
         offset="0"
         id="stop1659" /></linearGradient><rect
       x="116.55849"
       y="268.21277"
       width="592.77057"
       height="128.61269"
       id="rect113" /></defs><g
     inkscape:groupmode="layer"
     id="layer2"
     inkscape:label="Background"><rect
       style="opacity:1;mix-blend-mode:darken;fill:#1a1a1a;fill-opacity:0.717647;fill-rule:evenodd;stroke:none;stroke-width:0.265;stroke-dasharray:none;stroke-opacity:0.00438143"
       id="rect434"
       width="188.76135"
       height="109.0173"
       x="-15.824203"
       y="-2.4475958"
       sodipodi:insensitive="true" /></g><g
     inkscape:label="Text"
     inkscape:groupmode="layer"
     id="layer1"
     style="display:inline"><text
       xml:space="preserve"
       transform="matrix(0.26458333,0,0,0.26458333,-23.863754,-8.9483502)"
       id="text111"
       style="font-weight:bold;font-size:53.3333px;font-family:'DejaVu Sans Mono';-inkscape-font-specification:'DejaVu Sans Mono, Bold';white-space:pre;shape-inside:url(#rect113);display:inline;fill:#ff00ff"><tspan
         x="116.55859"
         y="315.40036"
         id="tspan6501"><tspan
           style="font-family:'Noto Kufi Arabic';-inkscape-font-specification:'Noto Kufi Arabic Bold';fill:#ffffff"
           id="tspan6499">Quest for Nature</tspan></tspan></text><text
       xml:space="preserve"
       style="font-weight:bold;font-size:14.1111px;font-family:'DejaVu Sans Mono';-inkscape-font-specification:'DejaVu Sans Mono, Bold';fill:#000000;stroke-width:0.264583"
       x="36.324467"
       y="89.030777"
       id="text275"><tspan
         sodipodi:role="line"
         id="tspan273"
         style="font-style:normal;font-variant:normal;font-weight:normal;font-stretch:normal;font-family:'Noto Sans Tai Tham';-inkscape-font-specification:'Noto Sans Tai Tham';fill:#39e991;fill-opacity:1;stroke-width:0.264583"
         x="36.324467"
         y="89.030777">www.qn.cz</tspan></text></g><g
     inkscape:groupmode="layer"
     id="layer3"
     inkscape:label="Graphics"><path
       style="opacity:1;fill:#39e991;fill-opacity:1;stroke:none;stroke-width:1.61304;stroke-dasharray:none;stroke-opacity:0.00438143"
       d=""
       id="path4461"
       transform="scale(0.26458333)" /><path
       style="fill:#39e991;fill-opacity:1;stroke-width:0.352778"
       d="m 68.57616,52.542854 c -2.85954,-3.5693 -5.19917,-6.66558 -5.19917,-6.8806 0,-0.21503 0.13607,-0.39097 0.30239,-0.39097 0.16631,0 1.25749,-1.16369 2.42483,-2.58598 1.16735,-1.4223 2.56049,-3.24793 3.09588,-4.05695 0.53539,-0.80903 1.0373,-1.47096 1.11535,-1.47096 0.0781,0 0.53331,0.25645 1.01166,0.56988 0.50769,0.33265 1.60382,0.56987 2.63322,0.56987 1.06371,0 2.12568,-0.23732 2.67624,-0.59806 0.50201,-0.32893 0.95039,-0.54569 0.99639,-0.48168 0.046,0.064 0.464,0.67201 0.92888,1.35111 0.46489,0.67909 2.0208,2.6225 3.45758,4.31868 2.61233,3.08396 2.61233,3.08396 1.73267,4.23333 -0.48381,0.63216 -2.81759,3.53062 -5.18619,6.44104 -2.3686,2.91042 -4.41544,5.332 -4.54855,5.3813 -0.1331,0.0493 -2.58163,-2.83071 -5.44118,-6.40001 z M 54.89854,38.891464 c -3.38901,-2.73279 -6.32058,-5.12589 -6.51461,-5.318 -0.2344,-0.23208 -0.0437,-0.6068 0.56816,-1.1167 0.50651,-0.42208 3.39447,-2.79148 6.41769,-5.26534 3.02321,-2.47385 5.67241,-4.49792 5.88711,-4.49792 0.21469,0 1.5336,1.11861 2.93092,2.48579 1.39731,1.36718 3.21497,2.91499 4.03924,3.43958 0.82427,0.52459 1.49391,1.11255 1.48809,1.30658 -0.006,0.19403 -0.24367,0.66093 -0.52854,1.03756 -0.28487,0.37664 -0.51795,1.30515 -0.51795,2.06336 0,0.75821 0.25891,1.92417 0.57535,2.59102 0.31644,0.66685 0.51488,1.26158 0.44097,1.32162 -0.0739,0.06 -1.08687,0.75421 -2.25104,1.54261 -1.16417,0.7884 -2.98437,2.3211 -4.04489,3.40601 -1.06053,1.0849 -2.01833,1.97254 -2.12845,1.97254 -0.11012,0 -2.97304,-2.23592 -6.36205,-4.96871 z m 29.8049,3.52961 c -0.76698,-0.79151 -2.27322,-2.1012 -3.34719,-2.91042 -1.07398,-0.80922 -2.30947,-1.70944 -2.74554,-2.00048 -0.79286,-0.52916 -0.79286,-0.52916 -0.0758,-1.92667 0.39438,-0.76863 0.71358,-1.80051 0.70932,-2.29306 -0.004,-0.49255 -0.31007,-1.56145 -0.67957,-2.37534 -0.67183,-1.47979 -0.67183,-1.47979 0.47525,-2.15658 0.6309,-0.37224 2.24639,-1.60345 3.58999,-2.73602 1.3436,-1.13257 2.65992,-2.35858 2.92515,-2.72446 0.26877,-0.37078 0.75349,-0.59431 1.09504,-0.50499 0.33704,0.0881 3.4141,2.43275 6.8379,5.21026 3.423799,2.7775 6.225099,5.15531 6.225099,5.28401 0,0.1287 -1.77073,1.64743 -3.93495,3.37495 -2.164219,1.72753 -5.061409,4.04706 -6.438189,5.15451 -1.37679,1.10745 -2.66947,2.02026 -2.87263,2.02847 -0.20316,0.008 -0.99691,-0.63268 -1.76389,-1.42418 z M 69.17213,27.733124 c -0.51186,-0.87341 -2.04306,-2.75911 -3.40268,-4.19044 -1.56059,-1.64289 -2.39836,-2.79442 -2.2722,-3.12319 0.10992,-0.28644 2.44104,-3.30508 5.18027,-6.70811 2.73923,-3.40303 5.09836,-6.1873197 5.24252,-6.1873197 0.14416,0 2.51728,2.7734797 5.27359,6.1632997 2.75631,3.38981 5.08853,6.36637 5.18271,6.61458 0.0942,0.24821 -0.71408,1.40379 -1.79613,2.56795 -1.08205,1.16417 -2.57639,2.86644 -3.32077,3.78283 -0.74438,0.91639 -1.41323,1.84563 -1.48635,2.06497 -0.0932,0.27961 -0.53761,0.22973 -1.48677,-0.16685 -0.74461,-0.31112 -1.81836,-0.56567 -2.38612,-0.56567 -0.56776,0 -1.65445,0.30059 -2.41486,0.66798 -1.38257,0.66799 -1.38257,0.66799 -2.31321,-0.92003 z"
       id="path6384" /></g></svg>
